<svg width="30" height="30" viewBox="0 0 30 30" fill="none" xmlns="http://www.w3.org/2000/svg">
<path d="M15 2.65974C19.0078 2.65974 19.4824 2.67705 21.0586 2.74629C22.5234 2.80975 23.3145 3.05207 23.8418 3.254C24.5391 3.5194 25.043 3.84249 25.5645 4.35598C26.0918 4.87523 26.4141 5.36564 26.6836 6.05221C26.8887 6.57147 27.1348 7.35612 27.1992 8.79273C27.2695 10.3505 27.2871 10.8178 27.2871 14.7584C27.2871 18.7047 27.2695 19.1721 27.1992 20.7241C27.1348 22.1665 26.8887 22.9453 26.6836 23.4646C26.4141 24.1512 26.0859 24.6473 25.5645 25.1608C25.0371 25.6801 24.5391 25.9974 23.8418 26.2628C23.3145 26.4647 22.5176 26.7071 21.0586 26.7705C19.4766 26.8398 19.002 26.8571 15 26.8571C10.9922 26.8571 10.5176 26.8398 8.94141 26.7705C7.47656 26.7071 6.68555 26.4647 6.1582 26.2628C5.46094 25.9974 4.95703 25.6743 4.43555 25.1608C3.9082 24.6416 3.58594 24.1512 3.31641 23.4646C3.11133 22.9453 2.86523 22.1607 2.80078 20.7241C2.73047 19.1663 2.71289 18.699 2.71289 14.7584C2.71289 10.8121 2.73047 10.3447 2.80078 8.79273C2.86523 7.35035 3.11133 6.57147 3.31641 6.05221C3.58594 5.36564 3.91406 4.86946 4.43555 4.35598C4.96289 3.83672 5.46094 3.5194 6.1582 3.254C6.68555 3.05207 7.48242 2.80975 8.94141 2.74629C10.5176 2.67705 10.9922 2.65974 15 2.65974ZM15 0C10.9277 0 10.418 0.0173085 8.81836 0.0865426C7.22461 0.155777 6.12891 0.409635 5.17969 0.773114C4.18945 1.1539 3.35156 1.65585 2.51953 2.48089C1.68164 3.30016 1.17188 4.1252 0.785156 5.09448C0.416016 6.03491 0.158203 7.10803 0.0878906 8.67734C0.0175781 10.2582 0 10.7601 0 14.7699C0 18.7797 0.0175781 19.2817 0.0878906 20.8568C0.158203 22.4261 0.416016 23.505 0.785156 24.4396C1.17188 25.4147 1.68164 26.2397 2.51953 27.059C3.35156 27.8783 4.18945 28.386 5.17383 28.761C6.12891 29.1245 7.21875 29.3783 8.8125 29.4476C10.4121 29.5168 10.9219 29.5341 14.9941 29.5341C19.0664 29.5341 19.5762 29.5168 21.1758 29.4476C22.7695 29.3783 23.8652 29.1245 24.8145 28.761C25.7988 28.386 26.6367 27.8783 27.4688 27.059C28.3008 26.2397 28.8164 25.4147 29.1973 24.4454C29.5664 23.505 29.8242 22.4318 29.8945 20.8625C29.9648 19.2875 29.9824 18.7855 29.9824 14.7757C29.9824 10.7659 29.9648 10.264 29.8945 8.68888C29.8242 7.11957 29.5664 6.04068 29.1973 5.10601C28.8281 4.1252 28.3184 3.30016 27.4805 2.48089C26.6484 1.66162 25.8105 1.1539 24.8262 0.778884C23.8711 0.415405 22.7813 0.161546 21.1875 0.0923121C19.582 0.0173085 19.0723 0 15 0Z" fill="white"/>
<path d="M15 7.18311C10.7461 7.18311 7.29492 10.5813 7.29492 14.77C7.29492 18.9587 10.7461 22.3569 15 22.3569C19.2539 22.3569 22.7051 18.9587 22.7051 14.77C22.7051 10.5813 19.2539 7.18311 15 7.18311ZM15 19.6914C12.2402 19.6914 10.002 17.4874 10.002 14.77C10.002 12.0526 12.2402 9.84862 15 9.84862C17.7598 9.84862 19.998 12.0526 19.998 14.77C19.998 17.4874 17.7598 19.6914 15 19.6914Z" fill="white"/>
<path d="M24.8086 6.88306C24.8086 7.86387 24 8.6543 23.0098 8.6543C22.0137 8.6543 21.2109 7.85811 21.2109 6.88306C21.2109 5.90224 22.0195 5.11182 23.0098 5.11182C24 5.11182 24.8086 5.90801 24.8086 6.88306Z" fill="white"/>
</svg>
