<svg width="40" height="40" viewBox="0 0 40 40" fill="none" xmlns="http://www.w3.org/2000/svg">
<path d="M36.6669 28.2V33.2C36.6688 33.6642 36.5737 34.1236 36.3877 34.5489C36.2018 34.9742 35.929 35.356 35.587 35.6698C35.245 35.9836 34.8412 36.2225 34.4015 36.3712C33.9618 36.5199 33.4958 36.5751 33.0335 36.5334C27.9049 35.9761 22.9785 34.2236 18.6502 31.4167C14.6233 28.8578 11.2091 25.4436 8.65021 21.4167C5.83351 17.0687 4.08062 12.1183 3.53355 6.96669C3.4919 6.5058 3.54667 6.04129 3.69438 5.60273C3.84209 5.16417 4.0795 4.76117 4.39149 4.41939C4.70348 4.07761 5.08322 3.80453 5.50653 3.61756C5.92984 3.43058 6.38745 3.33379 6.85021 3.33335H11.8502C12.6591 3.32539 13.4432 3.61182 14.0565 4.13924C14.6698 4.66666 15.0703 5.3991 15.1835 6.20002C15.3946 7.80013 15.786 9.37123 16.3502 10.8834C16.5745 11.4799 16.623 12.1282 16.4901 12.7515C16.3571 13.3748 16.0483 13.9469 15.6002 14.4L13.4835 16.5167C15.8561 20.6893 19.311 24.1441 23.4835 26.5167L25.6002 24.4C26.0534 23.9519 26.6255 23.6431 27.2487 23.5102C27.872 23.3772 28.5203 23.4258 29.1169 23.65C30.629 24.2143 32.2001 24.6056 33.8002 24.8167C34.6098 24.9309 35.3492 25.3387 35.8778 25.9625C36.4063 26.5863 36.6872 27.3826 36.6669 28.2Z" stroke="white" stroke-width="2" stroke-linecap="round" stroke-linejoin="round"/>
</svg>
