<svg width="30" height="25" viewBox="0 0 30 25" fill="none" xmlns="http://www.w3.org/2000/svg">
<path d="M9.4377 24.002C20.7557 24.002 26.9479 14.7668 26.9479 6.76044C26.9479 6.50081 26.942 6.23541 26.9303 5.97579C28.1348 5.11802 29.1744 4.05556 30 2.83833C28.8782 3.3298 27.6871 3.65078 26.4674 3.7903C27.7516 3.03232 28.7132 1.84157 29.1738 0.438789C27.9657 1.1438 26.6445 1.64112 25.2668 1.90944C24.3385 0.938252 23.1112 0.295213 21.7746 0.0797373C20.438 -0.135738 19.0665 0.0883523 17.8722 0.717362C16.6779 1.34637 15.7273 2.34527 15.1673 3.55961C14.6074 4.77395 14.4693 6.13611 14.7744 7.43547C12.3281 7.31459 9.93492 6.68886 7.74998 5.59883C5.56503 4.5088 3.63712 2.97881 2.09121 1.10805C1.3055 2.44193 1.06507 4.02035 1.41879 5.52251C1.77251 7.02467 2.69383 8.33785 3.99551 9.19517C3.01829 9.16462 2.06247 8.90555 1.20703 8.43937V8.51437C1.20616 9.91418 1.69762 11.2711 2.59789 12.3544C3.49815 13.4378 4.75165 14.1807 6.14531 14.457C5.24007 14.7008 4.28998 14.7364 3.36855 14.5608C3.76182 15.7647 4.52697 16.8176 5.55721 17.5726C6.58746 18.3277 7.8314 18.7472 9.11543 18.7726C6.93553 20.4586 4.24272 21.3732 1.4707 21.3688C0.979109 21.3681 0.487999 21.3384 0 21.28C2.81607 23.0589 6.09191 24.0038 9.4377 24.002Z" fill="white"/>
</svg>
